<?xml version="1.0" encoding="UTF-8"?>
<svg  viewBox="0 0 148 28" version="1.1" xmlns="http://www.w3.org/2000/svg" xmlns:xlink="http://www.w3.org/1999/xlink">
    <!-- Generator: Sketch 63.1 (92452) - https://sketch.com -->
    <title>Kromann Reumert logo sort</title>
    <desc>Created with Sketch.</desc>
    <g id="♋️-Symbols" stroke="none" stroke-width="1" fill="none" fill-rule="evenodd">
        <g id="UI/Logo/logo-sort" fill="#fff" fill-rule="nonzero">
            <g id="Kromann-Reumert-logo-sort">
                <path d="M94.9957011,16.7995906 L94.9957011,23.7678608 C94.9957011,23.7678608 94.9805527,26.4642784 94.9805527,26.5703173 C94.0867963,26.8581372 92.9506653,27.0096213 91.4964176,27.0096213 C88.5121801,27.0096213 88.1183214,25.4493347 88.1183214,24.0859775 L88.1183214,16.7995906 L86.8307062,16.7995906 L86.8307062,24.2071648 C86.8307062,25.828045 87.3003071,27.9942682 91.3903787,27.9942682 C93.0195293,28.0086017 94.6405501,27.7631475 96.1924258,27.2671443 L96.237871,27.2671443 L96.237871,16.814739 L94.9957011,16.814739" id="Path"></path>
                <polyline id="Path" points="7.95291709 0.121187308 2.51463664 5.52917093 7.95291709 11.1946776 9.87676561 11.1946776 4.1506653 5.4988741 9.69498465 0.121187308 7.95291709 0.121187308"></polyline>
                <rect id="Rectangle" x="0" y="0.121187308" width="1.25731832" height="11.0734903"></rect>
                <path d="M64.108086,16.7844422 L64.0323439,16.7844422 L64.0323439,27.8579324 L65.3199591,27.8579324 L65.3199591,17.769089 C65.7895599,17.7387922 67.2135107,17.7236438 67.6225179,17.7236438 C69.6221085,17.7236438 70.5007165,18.3447288 70.5007165,19.7383828 C70.5007165,21.1320368 70.0311157,22.1469806 67.5922211,22.1469806 L67.516479,22.1469806 L67.516479,22.6620266 L72.4548618,27.8579324 L74.1666325,27.8579324 L70.2886387,23.8587513 L69.6675537,23.2831116 L69.273695,22.9195496 C70.8794268,22.7226203 71.8337769,21.5107472 71.8337769,19.6474923 C71.8337769,17.7842375 70.409826,16.7389969 67.9254862,16.7389969 C66.6681679,16.7389969 64.8352098,16.7541453 64.108086,16.7844422 Z" id="Path"></path>
                <path d="M129.428045,16.7844422 L129.352303,16.7844422 L129.352303,27.8579324 L130.639918,27.8579324 L130.639918,17.769089 C131.109519,17.7387922 132.53347,17.7236438 132.927329,17.7236438 C134.926919,17.7236438 135.820676,18.3447288 135.820676,19.7383828 C135.820676,21.1320368 135.351075,22.1469806 132.91218,22.1469806 L132.851586,22.1469806 L132.851586,22.6620266 L137.774821,27.8579324 L139.486592,27.8579324 L135.608598,23.8587513 L134.972364,23.2679632 L134.578506,22.9195496 C136.199386,22.7226203 137.153736,21.5107472 137.153736,19.6474923 C137.153736,17.7842375 135.729785,16.7389969 133.245445,16.7389969 C131.972979,16.7389969 130.14002,16.7541453 129.428045,16.7844422" id="Path"></path>
                <path d="M12.7549642,0.121187308 L12.6792221,0.121187308 L12.6792221,11.1946776 L13.9668373,11.1946776 L13.9668373,1.09068577 C14.4212897,1.06038895 15.8149437,1.04524053 16.2542477,1.04524053 C18.2538383,1.04524053 19.1475947,1.66632549 19.1475947,3.05997953 C19.1475947,4.45363357 18.6779939,5.46857728 16.2542477,5.46857728 L16.1633572,5.46857728 L16.1633572,5.99877175 L21.10174,11.1946776 L22.8135107,11.1946776 L18.9355169,7.180348 L18.2992835,6.60470829 L17.9054248,6.24114637 C19.526305,6.04421699 20.4806551,4.83234391 20.4806551,2.98423746 C20.4806551,1.13613101 19.0567042,0.0757420676 16.5723644,0.0757420676 C15.2241556,0.0757420676 13.4366428,0.0908904811 12.7549642,0.121187308 Z" id="Path"></path>
                <path d="M24.4040942,5.77154555 C24.4040942,9.3011259 26.3279427,11.3310133 29.6908905,11.3310133 C32.4630502,11.3310133 35.2806551,9.54350051 35.2806551,5.55946776 C35.2806551,2.07533265 33.2962129,1.07635952e-15 29.9787103,1.07635952e-15 C27.2065507,1.07635952e-15 24.4040942,1.78751279 24.4040942,5.77154555 M25.7825998,5.55946776 C25.7825998,2.43889458 27.8882293,1.03009212 29.8423746,1.03009212 C32.4176049,1.03009212 33.9021494,2.74186285 33.9021494,5.74124872 C33.9021494,8.7406346 31.79652,10.2857728 29.8272262,10.2857728 C27.2519959,10.2857728 25.7825998,8.55885363 25.7825998,5.55946776 L25.7825998,5.55946776 Z" id="Shape"></path>
                <path d="M49.0051177,0.121187308 L46.0057318,8.16499488 C45.7785056,8.80122825 45.6118731,9.24053224 45.4603889,9.83132037 C45.2911151,9.18837226 45.08372,8.55607016 44.839304,7.93776868 L41.945957,0.121187308 L39.7494371,0.121187308 L38.0679632,11.1946776 L39.4010235,11.1946776 L40.3099284,4.16581372 C40.4311157,3.21146366 40.5674514,2.13592631 40.628045,1.22702149 L41.0824974,1.22702149 C41.1885363,1.78751279 41.4915046,2.5752303 41.7490276,3.27205732 L44.6878199,11.1946776 L46.1420676,11.1946776 L49.1414534,3.0296827 C49.4141249,2.30255885 49.6262027,1.62088025 49.7322416,1.22702149 L50.186694,1.22702149 C50.2321392,1.77236438 50.3533265,2.62067554 50.5654043,4.05977482 L51.6863869,11.1946776 L53.0345957,11.1946776 L51.2773797,0.121187308 L49.0051177,0.121187308" id="Path"></path>
                <path d="M111.053019,16.7995906 L108.053634,24.8282497 C107.826407,25.4796315 107.659775,25.9037871 107.508291,26.4945752 C107.337811,25.8587136 107.135579,25.2317932 106.902354,24.616172 L104.009007,16.7995906 L101.797339,16.7995906 L100.131013,27.8730809 L101.464074,27.8730809 L102.35783,20.8290686 C102.479017,19.8898669 102.615353,18.8143296 102.675947,17.9054248 L103.130399,17.9054248 C103.315155,18.5987368 103.537663,19.2814334 103.796929,19.9504606 L103.88782,20.1928352 L106.735722,27.8730809 L108.189969,27.8730809 L111.204504,19.6929376 C111.477175,18.9809621 111.674104,18.2841351 111.780143,17.9054248 L112.234596,17.9054248 C112.280041,18.4356192 112.401228,19.2839304 112.628454,20.7381781 L113.734289,27.8730809 L115.082497,27.8730809 L113.325281,16.7995906 L111.053019,16.7995906" id="Path"></path>
                <path d="M60.1846469,0.121187308 L55.6704197,11.1946776 L57.00348,11.1946776 L58.1093142,8.42251791 L64.365609,8.42251791 C64.4110542,8.51340839 65.4411464,11.1946776 65.4411464,11.1946776 L66.9105425,11.1946776 L62.3963153,0.121187308 L60.1846469,0.121187308 M61.5934493,1.22702149 L63.9717503,7.42272262 L58.4880246,7.42272262 L60.8814739,1.22702149 L61.5934493,1.22702149 Z" id="Shape"></path>
                <path d="M79.3322416,0.121187308 L79.3322416,3.12057318 C79.3322416,5.07471853 79.4382805,9.46775844 79.4534289,10.0888434 L79.1504606,10.0888434 L78.4233367,8.9678608 L72.3336745,0.121187308 L70.0765609,0.121187308 L70.0765609,11.1946776 L71.364176,11.1946776 L71.364176,7.90747185 C71.364176,6.02906858 71.2581372,1.84810645 71.2429887,1.22702149 L71.5762538,1.22702149 L72.242784,2.27226203 L78.4233367,11.1946776 L80.6047083,11.1946776 L80.6047083,0.121187308 L79.3322416,0.121187308" id="Path"></path>
                <path d="M94.9654043,0.121187308 L94.9654043,3.12057318 C94.9654043,5.07471853 95.0865916,9.46775844 95.10174,10.0888434 L94.7987718,10.0888434 C94.7381781,10.0282497 94.0564995,8.9678608 94.0564995,8.9678608 C94.0564995,8.9678608 87.9668373,0.121187308 87.9668373,0.121187308 L85.7248721,0.121187308 L85.7248721,11.1946776 L86.9973388,11.1946776 L86.9973388,7.90747185 C86.9973388,6.02906858 86.9064483,1.84810645 86.8761515,1.22702149 L87.224565,1.22702149 L87.8910952,2.27226203 L94.0716479,11.1946776 L96.2530194,11.1946776 L96.2530194,0.121187308 L94.9654043,0.121187308" id="Path"></path>
                <polyline id="Path" points="76.635824 16.7995906 76.635824 27.8730809 82.6345957 27.8730809 82.6345957 26.8581372 77.9082907 26.8581372 77.9082907 22.6468782 82.4073695 22.6468782 82.4073695 21.6622313 77.9082907 21.6622313 77.9082907 17.7842375 82.6345957 17.7842375 82.6345957 16.7995906 76.635824 16.7995906"></polyline>
                <polyline id="Path" points="119.384647 16.7995906 119.384647 27.8730809 125.383419 27.8730809 125.383419 26.8581372 120.657114 26.8581372 120.657114 22.6468782 125.156192 22.6468782 125.156192 21.6622313 120.657114 21.6622313 120.657114 17.7842375 125.383419 17.7842375 125.383419 16.7995906 119.384647 16.7995906"></polyline>
                <polyline id="Path" points="139.365404 16.7995906 139.365404 17.8145343 143.03132 17.8145343 143.03132 27.8730809 144.318936 27.8730809 144.318936 17.8145343 147.984852 17.8145343 147.984852 16.7995906 139.365404 16.7995906"></polyline>
            </g>
        </g>
    </g>
</svg>
